<svg
  aria-hidden="true"
  focusable="false"
  data-prefix="fas"
  data-icon="square-check"
  xmlns="http://www.w3.org/2000/svg"
  viewBox="0 0 448 512"
>
  <path
    fill="#22c55e"
    d="M384 32H64C28.7 32 0 60.7 0 96V416c0 
    35.3 28.7 64 64 64H384c35.3 0 
    64-28.7 64-64V96c0-35.3-28.7-64-64-64zM195.6 
    384c-8.2 0-16.4-3.1-22.6-9.4l-96-96c-12.5-12.5-12.5-32.8 
    0-45.3s32.8-12.5 45.3 0l73.4 
    73.4 150.6-150.6c12.5-12.5 32.8-12.5 
    45.3 0s12.5 32.8 0 45.3l-173.3 
    173.3c-6.2 6.2-14.4 9.4-22.6 9.4z"
  />
</svg>
